<svg id="Capa_1" enable-background="new 0 0 512 512" height="512" viewBox="0 0 512 512" width="512" xmlns="http://www.w3.org/2000/svg"><g><g><path d="m256 0c-141.385 0-256 114.615-256 256 0 6.017.224 11.981.632 17.895l173.428 224.705-.003.002c25.727 8.687 53.285 13.398 81.943 13.398 141.385 0 256-114.615 256-256s-114.615-256-256-256z" fill="#85faf4"/></g><g><g><path d="m192.132 158.885 42.799-112.581c-15.218-20.063-34.528-31.532-55.591-34.623-19.04-2.8-39.51 1.25-59.67 11.99-21.11 11.239-37.83 30.729-47.91 54.589-14.45 34.17-15.33 77.28 3.91 117.92 6.96 14.713 5.77 31.277-.404 48.234l54.991 234.596c13.855 7.828 28.498 14.423 43.803 19.59 118.97-106.59 111.791-195.537 88.75-255.891z" fill="#7e5966"/></g><g><path d="m176 249.5c-34.567-27.829-71.187-32.629-95.595-31.834-.005-.002-.009-.004-.014-.006.05 8.655-1.809 17.646-5.125 26.755l54.991 234.596c13.855 7.828 28.498 14.423 43.803 19.59 11.604-10.396 22.005-20.625 31.311-30.676l-19.871-12.925c68.5-56.5 49.5-158-9.5-205.5z" fill="#725057"/></g><g><path d="m60.51 245.793c-19.61 3.03-40.217 11.26-59.878 28.102 6.086 88.12 56.76 163.96 129.629 205.131 12.039-11.455 23.177-23.086 33.009-34.571 24.449-28.561 32.697-57.137 32.657-82.741-.11-71.618-64.638-126.856-135.417-115.921z" fill="#7e5966"/></g><g><path d="m126.003 169.616c21.663 51.968 93.663 73.099 136.811 73.099-2.773-7.263-5.775-14.112-8.815-20.527-28.567-60.289 15.866-90.265-.124-140.187l-86.875 3.666s-62.66 31.981-40.997 83.949z" fill="#e6f0ff"/></g><g><path d="m166.003 169.616c-16.471-39.511 17.539-72.045 34.792-85.375l-33.795 1.426s-62.66 31.981-40.997 83.949 93.664 73.099 136.811 73.099c-.695-1.822-1.405-3.617-2.127-5.386-37.999-9.181-79.199-30.568-94.684-67.713z" fill="#c5def8"/></g><g><path d="m251 74.333c-4.608-10.715-10.014-20.053-16.067-28.034-54.823-13.964-91.933 3.105-91.933 39.368 0 36.999 44.676 51.354 108.135 55.378 5.61-20.794 10.917-41.015-.135-66.712z" fill="#fdca00"/></g><g><path d="m183 85.667c0-36.263 51.933-39.368 51.933-39.368-54.823-13.964-91.933 3.105-91.933 39.368 0 36.999 44.676 51.354 108.135 55.378.386-1.43.769-2.857 1.147-4.283-42.089-7.148-69.282-22.23-69.282-51.095z" fill="#feac00"/></g><g><circle cx="176" cy="77.74" fill="#543438" r="15"/></g><g><circle cx="183.5" cy="70.24" fill="#fff" r="7.5"/></g><g><path d="m203.66 121.69c0 27.645 23.052 49.64 50.673 48.492 56.886-2.365 152.571 2.879 239.088 51.401 0 0-41.799-68.012-157.987-125.398z" fill="#ff7e3e"/></g><g><path d="m203.66 121.69s175.339-24.278 299.021 119.291c3.244 3.766 9.417 1.373 9.319-3.596-.737-37.156-9.963-136.039-84.053-192.209-37.577-28.489-81.632-35.129-120.702-32.969-58.114 3.212-103.585 51.282-103.585 109.483z" fill="#fdca00"/></g><g><path d="m475.307 212.571c-17.646-121.11-234.155-161.36-142.882-200.432-8.543-.444-16.973-.386-25.182.068-58.112 3.212-103.583 51.282-103.583 109.483s151.05-20.91 271.647 90.881z" fill="#feac00"/></g><g><path d="m511.999 237.386c-.718-36.197-9.503-130.972-78.459-187.773-32.055 1.883-73.931 18.442-88.461 87.697 51.201 16.104 108.475 46.646 157.601 103.671 3.244 3.766 9.417 1.374 9.319-3.595z" fill="#7e5966"/></g><g><path d="m475.307 212.571c-8.551-58.687-63.8-98.386-108.097-128.166-9.481 12.764-17.311 29.933-22.131 52.906 41.941 13.191 87.955 36.083 130.229 75.271 0-.004 0-.007-.001-.011z" fill="#725057"/></g><g><path d="m165.595 441.678c-68.267-56.328-109.697-152.708-90.349-197.214-4.869.135-9.786.564-14.736 1.329-19.61 3.03-40.217 11.26-59.878 28.102 6.086 88.12 56.76 163.96 129.629 205.131 12.039-11.455 23.177-23.086 33.009-34.571.793-.926 1.566-1.851 2.325-2.777z" fill="#725057"/></g></g></g></svg>