<?xml version="1.0" encoding="utf-8"?><svg xmlns="http://www.w3.org/2000/svg" xmlns:xlink="http://www.w3.org/1999/xlink"><symbol viewBox="0 0 512 512" id="bird" xmlns="http://www.w3.org/2000/svg"><path d="M256 0C114.615 0 0 114.615 0 256c0 6.017.224 11.981.632 17.895L174.06 498.6l-.003.002C199.784 507.289 227.342 512 256 512c141.385 0 256-114.615 256-256S397.385 0 256 0z"/><path d="M192.132 158.885l42.799-112.581c-15.218-20.063-34.528-31.532-55.591-34.623-19.04-2.8-39.51 1.25-59.67 11.99C98.56 34.91 81.84 54.4 71.76 78.26c-14.45 34.17-15.33 77.28 3.91 117.92 6.96 14.713 5.77 31.277-.404 48.234l54.991 234.596c13.855 7.828 28.498 14.423 43.803 19.59 118.97-106.59 111.791-195.537 88.75-255.891z"/><path d="M176 249.5c-34.567-27.829-71.187-32.629-95.595-31.834l-.014-.006c.05 8.655-1.809 17.646-5.125 26.755l54.991 234.596c13.855 7.828 28.498 14.423 43.803 19.59 11.604-10.396 22.005-20.625 31.311-30.676L185.5 455C254 398.5 235 297 176 249.5z"/><path d="M60.51 245.793c-19.61 3.03-40.217 11.26-59.878 28.102 6.086 88.12 56.76 163.96 129.629 205.131 12.039-11.455 23.177-23.086 33.009-34.571 24.449-28.561 32.697-57.137 32.657-82.741-.11-71.618-64.638-126.856-135.417-115.921zM126.003 169.616c21.663 51.968 93.663 73.099 136.811 73.099-2.773-7.263-5.775-14.112-8.815-20.527-28.567-60.289 15.866-90.265-.124-140.187L167 85.667s-62.66 31.981-40.997 83.949z"/><path d="M166.003 169.616c-16.471-39.511 17.539-72.045 34.792-85.375L167 85.667s-62.66 31.981-40.997 83.949 93.664 73.099 136.811 73.099a250.735 250.735 0 00-2.127-5.386c-37.999-9.181-79.199-30.568-94.684-67.713z"/><path d="M251 74.333c-4.608-10.715-10.014-20.053-16.067-28.034C180.11 32.335 143 49.404 143 85.667c0 36.999 44.676 51.354 108.135 55.378 5.61-20.794 10.917-41.015-.135-66.712z"/><path d="M183 85.667c0-36.263 51.933-39.368 51.933-39.368C180.11 32.335 143 49.404 143 85.667c0 36.999 44.676 51.354 108.135 55.378.386-1.43.769-2.857 1.147-4.283C210.193 129.614 183 114.532 183 85.667z"/><circle cx="176" cy="77.74" r="15"/><circle cx="183.5" cy="70.24" r="7.5"/><path d="M203.66 121.69c0 27.645 23.052 49.64 50.673 48.492 56.886-2.365 152.571 2.879 239.088 51.401 0 0-41.799-68.012-157.987-125.398z"/><path d="M203.66 121.69s175.339-24.278 299.021 119.291c3.244 3.766 9.417 1.373 9.319-3.596-.737-37.156-9.963-136.039-84.053-192.209-37.577-28.489-81.632-35.129-120.702-32.969C249.131 15.419 203.66 63.489 203.66 121.69z"/><path d="M475.307 212.571C457.661 91.461 241.152 51.211 332.425 12.139c-8.543-.444-16.973-.386-25.182.068C249.131 15.419 203.66 63.489 203.66 121.69s151.05-20.91 271.647 90.881z"/><path d="M511.999 237.386c-.718-36.197-9.503-130.972-78.459-187.773-32.055 1.883-73.931 18.442-88.461 87.697 51.201 16.104 108.475 46.646 157.601 103.671 3.244 3.766 9.417 1.374 9.319-3.595z"/><path d="M475.307 212.571c-8.551-58.687-63.8-98.386-108.097-128.166-9.481 12.764-17.311 29.933-22.131 52.906 41.941 13.191 87.955 36.083 130.229 75.271l-.001-.011zM165.595 441.678C97.328 385.35 55.898 288.97 75.246 244.464c-4.869.135-9.786.564-14.736 1.329-19.61 3.03-40.217 11.26-59.878 28.102 6.086 88.12 56.76 163.96 129.629 205.131 12.039-11.455 23.177-23.086 33.009-34.571.793-.926 1.566-1.851 2.325-2.777z"/></symbol><symbol viewBox="0 0 419.2 371.2" id="download" xmlns="http://www.w3.org/2000/svg"><circle cx="158" cy="144.4" r="28.8"/><path d="M394.4 250.4c-13.6-12.8-30.8-21.2-49.6-23.6V80.4c0-15.6-6.4-29.6-16.4-40C318 30 304 24 288.4 24h-232c-15.6 0-29.6 6.4-40 16.4C6 50.8 0 64.8 0 80.4v238.8c0 15.6 6.4 29.6 16.4 40 10.4 10.4 24.4 16.4 40 16.4h224.4c14.8 12 33.2 19.6 53.6 19.6 23.6 0 44.8-9.6 60-24.8 15.2-15.2 24.8-36.4 24.8-60s-9.6-44.8-24.8-60zM21.2 80.4c0-9.6 4-18.4 10.4-24.4 6.4-6.4 15.2-10.4 24.8-10.4h232c9.6 0 18.4 4 24.8 10.4 6.4 6.4 10.4 15.2 10.4 24.8v124.8l-59.2-59.2c-4-4-10.8-4.4-15.2 0L160 236l-60.4-60.8c-4-4-10.8-4.4-15.2 0l-63.2 64V80.4zM56 354.8v-.4c-9.6 0-18.4-4-24.8-10.4-6-6.4-10-15.2-10-24.8v-50L92 198l60.4 60.4c4 4 10.8 4 15.2 0l89.2-89.6 58.4 58.8-3.6 1.2c-1.6.4-3.2.8-5.2 1.6-1.6.4-3.2 1.2-4.8 1.6-1.2.4-2 .8-3.2 1.6-1.6.8-2.8 1.2-4 2l-6 3.6c-1.2.8-2 1.2-3.2 2-.8.4-1.2.8-2 1.2-3.6 2.4-6.8 5.2-9.6 8.4-15.2 15.2-24.8 36.4-24.8 60 0 6 .8 11.6 2 17.6.4 1.6.8 2.8 1.2 4.4 1.2 4 2 8 4 12v.4c1.6 3.2 3.2 6.8 5.2 9.6H56zm322.8.4c-11.6 11.6-27.2 18.4-44.8 18.4-16.8 0-32.4-6.8-43.6-17.6-1.6-1.6-3.2-3.6-4.8-5.2-1.2-1.2-2.4-2.8-3.6-4.4-1.6-2-2.8-4.4-4-6.8-.8-1.6-1.6-2.8-2.4-4.4-.8-2-1.6-4.4-2-6.8-.4-1.6-1.2-3.6-1.6-5.2-.8-4-1.2-8.4-1.2-12.8 0-17.6 7.2-33.2 18.4-44.8 11.2-11.6 27.2-18.4 44.8-18.4s33.2 7.2 44.8 18.4c11.6 11.6 18.4 27.2 18.4 44.8s-7.2 33.2-18.4 44.8z"/><path d="M351.2 313.2l-6.4 6.4v-44c0-6-4.8-10.8-10.8-10.8s-10.8 4.8-10.8 10.8v44l-6.4-6.4c-4-4-10.8-4-15.2 0-4 4-4 10.8 0 15.2l24.8 24.8c.8.8 2 1.6 3.6 2.4 1.2.4 2.4.8 3.6.8h.8c1.2 0 2.4-.4 3.6-.8 1.2-.4 2.4-1.2 3.6-2.4l24.8-24.8c4-4 4-10.8 0-15.2-4.4-4.4-11.2-4.4-15.2 0z"/></symbol><symbol viewBox="0 0 512 512" id="map" xmlns="http://www.w3.org/2000/svg"><path d="M251 290.133l19.567-19.567a8.529 8.529 0 000-12.066 8.529 8.529 0 00-12.066 0l-19.566 19.566-19.569-19.566a8.534 8.534 0 00-12.067 12.067l19.566 19.567L207.3 309.7a8.533 8.533 0 1012.066 12.066l19.567-19.566 19.567 19.567a8.533 8.533 0 1012.066-12.066L251 290.133z"/><path d="M460.8 0c-28.264.031-51.169 22.936-51.2 51.2H102.4C102.4 22.923 79.477 0 51.2 0S0 22.923 0 51.2v409.6c.031 28.264 22.936 51.169 51.2 51.2h409.6c28.264-.031 51.169-22.936 51.2-51.2V51.2C511.969 22.936 489.064.031 460.8 0zm-51.2 68.267v75.156c-47.91-10.296-72.408-54.342-81.438-75.156H409.6zm-99.941 0c7.411 19.818 35.317 81.254 99.941 92.717v75.348C254.082 193.856 203.954 99.852 191.224 68.267h118.435zM17.067 51.2c.02-18.843 15.29-34.113 34.133-34.133 18.843.02 34.113 15.29 34.133 34.133v371.545c-19.381-17.527-48.886-17.527-68.267 0V51.2zM51.2 494.933c-18.843-.02-34.113-15.29-34.133-34.133 0-18.851 15.282-34.133 34.133-34.133s34.133 15.282 34.133 34.133a8.533 8.533 0 0017.066 0V359.386a336.302 336.302 0 01222.79 135.547H51.2zm409.6 0H345.857A347.533 347.533 0 00102.4 342.095V199.951c.865 2.091 1.699 4.198 2.625 6.254a159.017 159.017 0 0059.542 69.096c3.45 2.2 7.058 4.275 10.733 6.163a8.536 8.536 0 007.8-15.184 114.352 114.352 0 01-9.358-5.367 141.958 141.958 0 01-53.15-61.717 205.434 205.434 0 01-18.192-79.838V68.267h70.493c9.485 28.087 57.598 138.6 236.707 185.738v94.385c-27.038-24.797-66.285-43.561-117.408-55.719a8.532 8.532 0 00-3.95 16.6c56.397 13.412 97.125 34.835 121.358 63.582V460.8c0 4.713 3.82 8.533 8.533 8.533s8.533-3.82 8.533-8.533c0-18.851 15.282-34.133 34.133-34.133 18.851 0 34.133 15.282 34.133 34.133.001 18.851-15.281 34.133-34.132 34.133zm34.133-72.188c-19.381-17.527-48.886-17.527-68.267 0V51.2c0-18.851 15.282-34.133 34.133-34.133 18.851 0 34.133 15.282 34.133 34.133v371.545z"/></symbol><symbol viewBox="0 0 512 512" id="user" xmlns="http://www.w3.org/2000/svg"><path d="M256 0C115.03 0 0 115.05 0 256c0 142.255 116.376 256 256 256 67.985 0 132.324-26.698 180.812-75.188C485.298 388.327 512 324.113 512 256 512 115.03 396.95 0 256 0zm135 437.141a226.61 226.61 0 01-30 18.935V407c0-8.284-6.716-15-15-15s-15 6.716-15 15v62.191C307.519 477.476 282.28 482 256 482s-51.519-4.524-75-12.809V407c0-8.284-6.716-15-15-15s-15 6.716-15 15v49.076a226.61 226.61 0 01-30-18.935V407c0-41.907 33.645-76 75-76h120c41.355 0 75 34.093 75 76v30.141zM181 226c0-41.355 33.645-75 75-75 40.522 0 73.642 32.304 74.959 72.511-1.28 40.924-32.594 75.376-70.904 77.382C216.784 303.156 181 268.881 181 226zm240 184.262c0-61.902-44.063-103.28-93.742-108.651a109.959 109.959 0 005.688-6.008C350.499 275.597 361 249.268 361 220.907c0-1.051-.108-2.077-.314-3.067C356.508 163.741 311.151 121 256 121c-57.897 0-105 47.103-105 105 0 28.899 11.477 55.784 32.323 75.775C134.415 307.744 91 348.728 91 410.262 53.188 369.844 30 315.583 30 256 30 131.383 131.383 30 256 30s226 101.383 226 226c0 59.583-23.188 113.844-61 154.262z"/></symbol></svg>